<?xml version="1.0" encoding="utf-8"?>
<!-- Generator: Adobe Illustrator 24.0.2, SVG Export Plug-In . SVG Version: 6.00 Build 0)  -->
<svg version="1.1" id="圖層_1" xmlns="http://www.w3.org/2000/svg" xmlns:xlink="http://www.w3.org/1999/xlink" x="0px" y="0px"
	 viewBox="0 0 359 109.8" style="enable-background:new 0 0 359 109.8;" xml:space="preserve">
<style type="text/css">
	.st0{fill:#394097;}
	.st1{fill-rule:evenodd;clip-rule:evenodd;fill:#394097;}
	.st2{fill-rule:evenodd;clip-rule:evenodd;fill:#FAEE00;}
</style>
<g>
	<path class="st0" d="M117.5,27.3l0-20.5h9.3l0,45.3h-9.3V32.8l-17.4,0v19.4l-9.3-4V6.8h9.3v20.5H117.5z"/>
	<path class="st0" d="M147.5,35.6l-13-24.7l-4.2-4h12.7L153.3,28l9.3-21.2h7.5l-13.3,27.9v17.4h-9.3V35.6z"/>
	<path class="st0" d="M126,101.5c-14.4,0-21.6-7.8-21.6-23.3s7.2-23.3,21.6-23.3c14.4,0,21.6,7.8,21.6,23.3S140.4,101.5,126,101.5z
		 M126,60.4c-8.2,0-12.3,5.9-12.3,17.8c0,11.9,4.1,17.8,12.3,17.8c8.2,0,12.3-5.9,12.3-17.8C138.3,66.3,134.2,60.4,126,60.4z"/>
	<path class="st0" d="M162.7,84.5c0,7.7,3.3,11.5,9.8,11.5c6.5,0,9.8-3.8,9.8-11.5v-29h9.3v29c0,11.3-6.4,17-19.1,17
		c-12.7,0-19.1-5.7-19.1-17v-25l9.3-4V84.5z"/>
	<path class="st0" d="M209.7,81.6h-3.8v19.3h-9.3V59.5l-1.9-4h20.3c11.2,0,16.8,4.3,16.8,13c0,6.8-3.5,10.9-10.4,12.4l16.1,19.9
		h-12.1L209.7,81.6z M205.9,76.1h9.1c5,0,7.6-2.5,7.6-7.6c0-5-2.5-7.6-7.6-7.6h-9.1V76.1z"/>
	<path class="st0" d="M251.4,67.8v33.1h-9.3V59.5l-1.9-4h11.2l17.4,32v-32h9.3v45.3h-9.3L251.4,67.8z"/>
	<path class="st0" d="M293.5,85v15.8l-9.3-4v-25c0-11.3,6.4-17,19.1-17c12.7,0,19.1,5.7,19.1,17v29h-9.3V85H293.5z M313.1,79.6v-7.7
		c0-7.7-3.3-11.5-9.8-11.5c-6.5,0-9.8,3.8-9.8,11.5v7.7H313.1z"/>
	<path class="st0" d="M337.9,55.6v39.9H359v5.5h-30.4V59.5L337.9,55.6z"/>
	<rect x="284.2" y="90.2" class="st0" width="9.3" height="10.7"/>
	<path class="st0" d="M99.1,75.7c-2.8,1.1-5.6,2.3-8.4,3.4v5.4c0,7.7-3.3,11.5-9.8,11.5c-2.8,0-6.7,4.8-6.7,4.8
		c2,0.4,4.2,0.6,6.7,0.6c12.7,0,19.1-5.7,19.1-17v-9.3C99.7,75.4,99.4,75.5,99.1,75.7z"/>
	<path class="st1" d="M0.1,0c6.5,2.5,12.6,4.8,18.8,7.2c9.6,3.7,19.2,7.3,28.8,11c1.3,0.5,2.4,0.9,2.5,2.8
		c0.5,24.4,1.1,48.8,1.6,73.2c0,0.2-0.1,0.4-0.1,0.8c-0.7-0.2-1.4-0.3-2.1-0.6C34.3,88.6,19.1,82.8,3.9,77c-1.5-0.6-2.2-1.3-2.2-3
		C1.2,49.9,0.6,25.7,0,1.6C0,1.2,0,0.8,0.1,0z"/>
	<path class="st1" d="M51.6,102.6C42.2,99,33,95.4,23.8,91.9C17.5,89.5,11.3,87,5,84.8c-2.7-0.9-3.7-2.2-2.9-5.2
		c1.4,0.5,2.7,1,4.1,1.6c14.2,5.4,28.3,10.9,42.5,16.2C51.4,98.3,52.4,99.5,51.6,102.6z"/>
	<path class="st1" d="M2.3,87.3c0.9,0.3,1.8,0.6,2.6,0.9c14.8,5.7,29.5,11.4,44.3,16.9c2.4,0.9,3.4,2,2.6,4.7
		c-3.2-1.2-6.3-2.4-9.5-3.6c-12.5-4.8-25-9.6-37.5-14.3C2.4,91.1,1.5,89.9,2.3,87.3z"/>
	<g>
		<path class="st2" d="M79.6,6.8c0,1.1,0,1.9,0,2.7c0,20.3,0,40.5,0,60.8c0,1.9-0.5,2.7-2.2,3.4C64.7,78.8,52,84.1,39.4,89.2
			c-0.7,0.3-1.5,0.6-2.6,1c0-1.2,0-2,0-2.8c0-20.3,0-40.5,0-60.8c0-1.9,0.6-2.7,2.3-3.4c12.7-5.1,25.4-10.3,38.1-15.5
			C77.8,7.5,78.6,7.2,79.6,6.8z"/>
		<path class="st2" d="M36.9,96.5c0-1.4,0-2.3,0-3.4c14.2-5.8,28.3-11.6,42.5-17.4c0.7,2.4,0,3.6-2.3,4.5
			c-12.6,5-25.1,10.2-37.6,15.3C38.7,95.9,38,96.1,36.9,96.5z"/>
		<path class="st2" d="M79.4,82.5c0.7,2.3-0.1,3.2-2,3.9C64.7,91.6,52,96.8,39.4,102c-0.7,0.3-1.5,0.6-2.3,0.9
			c-0.3-1.7-0.6-3,1.4-3.8C51.6,93.8,64.8,88.3,78,82.9C78.4,82.7,78.9,82.7,79.4,82.5z"/>
	</g>
	<g>
		<path class="st0" d="M100,39.4h-9.3v20.1l-0.1,0v9.7c3.1-1.3,6.2-2.5,9.3-3.8v-0.8h0.1V39.4z"/>
		<path class="st0" d="M90.7,72.7v3.1c3-1.2,6-2.5,9-3.7c0.1,0,0.2-0.1,0.3-0.1v-3.2c-0.3,0.2-0.7,0.4-1.2,0.6
			C96.1,70.5,93.4,71.6,90.7,72.7z"/>
	</g>
</g>
</svg>
